<svg width="219" height="55" viewBox="0 0 219 55" fill="none" xmlns="http://www.w3.org/2000/svg">
<g filter="url(#filter0_d_428_3275)">
<mask id="path-1-outside-1_428_3275" maskUnits="userSpaceOnUse" x="3" y="0" width="48" height="48" fill="black">
<rect fill="white" x="3" width="48" height="48"/>
<path fill-rule="evenodd" clip-rule="evenodd" d="M43.462 36.8318C46.4469 33.0621 48.2292 28.2965 48.2292 23.1146C48.2292 10.901 38.3281 1 26.1146 1C13.901 1 4 10.901 4 23.1146C4 35.3281 13.901 45.2292 26.1146 45.2292C31.2984 45.2292 36.0656 43.4456 39.8361 40.4586L45.6226 46.2451C46.624 47.2465 48.2475 47.2465 49.2489 46.2451C50.2503 45.2437 50.2503 43.6202 49.2489 42.6188L43.462 36.8318ZM43.462 36.8318L37.9246 31.2945C37.4129 30.7827 36.7087 30.5111 35.9859 30.5465C35.2705 30.5816 34.6027 30.9143 34.1438 31.4634L34.1413 31.4662C34.133 31.4758 34.1126 31.4988 34.0802 31.5335C34.0152 31.6029 33.903 31.7182 33.744 31.8644C33.4251 32.1579 32.9258 32.5694 32.2516 32.9861C30.9115 33.8144 28.8856 34.6628 26.1648 34.6628C19.8118 34.6628 14.6625 29.5136 14.6625 23.1627C14.6625 16.8118 19.8118 11.6627 26.1648 11.6627C32.5178 11.6627 37.6672 16.8118 37.6672 23.1627C37.6672 23.9537 37.5877 24.7235 37.437 25.4654C37.1553 26.8532 38.0519 28.2067 39.4398 28.4885C40.8276 28.7703 42.1811 27.8736 42.4629 26.4858C42.6813 25.4099 42.7955 24.2983 42.7955 23.1627C42.7955 13.9787 35.3493 6.53432 26.1648 6.53432C16.9803 6.53432 9.53407 13.9787 9.53407 23.1627C9.53407 32.3467 16.9803 39.7911 26.1648 39.7911C30.0084 39.7911 32.9558 38.5798 34.948 37.3484C35.338 37.1073 35.6917 36.8654 36.009 36.6315L39.8361 40.4586C41.1801 39.3938 42.3975 38.1762 43.462 36.8318Z"/>
</mask>
<path fill-rule="evenodd" clip-rule="evenodd" d="M43.462 36.8318C46.4469 33.0621 48.2292 28.2965 48.2292 23.1146C48.2292 10.901 38.3281 1 26.1146 1C13.901 1 4 10.901 4 23.1146C4 35.3281 13.901 45.2292 26.1146 45.2292C31.2984 45.2292 36.0656 43.4456 39.8361 40.4586L45.6226 46.2451C46.624 47.2465 48.2475 47.2465 49.2489 46.2451C50.2503 45.2437 50.2503 43.6202 49.2489 42.6188L43.462 36.8318ZM43.462 36.8318L37.9246 31.2945C37.4129 30.7827 36.7087 30.5111 35.9859 30.5465C35.2705 30.5816 34.6027 30.9143 34.1438 31.4634L34.1413 31.4662C34.133 31.4758 34.1126 31.4988 34.0802 31.5335C34.0152 31.6029 33.903 31.7182 33.744 31.8644C33.4251 32.1579 32.9258 32.5694 32.2516 32.9861C30.9115 33.8144 28.8856 34.6628 26.1648 34.6628C19.8118 34.6628 14.6625 29.5136 14.6625 23.1627C14.6625 16.8118 19.8118 11.6627 26.1648 11.6627C32.5178 11.6627 37.6672 16.8118 37.6672 23.1627C37.6672 23.9537 37.5877 24.7235 37.437 25.4654C37.1553 26.8532 38.0519 28.2067 39.4398 28.4885C40.8276 28.7703 42.1811 27.8736 42.4629 26.4858C42.6813 25.4099 42.7955 24.2983 42.7955 23.1627C42.7955 13.9787 35.3493 6.53432 26.1648 6.53432C16.9803 6.53432 9.53407 13.9787 9.53407 23.1627C9.53407 32.3467 16.9803 39.7911 26.1648 39.7911C30.0084 39.7911 32.9558 38.5798 34.948 37.3484C35.338 37.1073 35.6917 36.8654 36.009 36.6315L39.8361 40.4586C41.1801 39.3938 42.3975 38.1762 43.462 36.8318Z" fill="#2C2C2F"/>
<path d="M37.9246 31.2945L38.0471 31.172L37.9246 31.2945ZM35.9859 30.5465L35.9774 30.3735L35.9859 30.5465ZM34.1438 31.4634L34.2744 31.5773L34.2767 31.5745L34.1438 31.4634ZM34.1413 31.4662L34.2717 31.5803L34.2719 31.5801L34.1413 31.4662ZM34.0802 31.5335L33.9536 31.4152L33.9536 31.4152L34.0802 31.5335ZM33.744 31.8644L33.8613 31.9919L33.8613 31.9919L33.744 31.8644ZM32.2516 32.9861L32.1605 32.8388L32.2516 32.9861ZM37.437 25.4654L37.6068 25.4999L37.437 25.4654ZM39.4398 28.4885L39.4742 28.3187L39.4398 28.4885ZM42.4629 26.4858L42.6327 26.5202L42.4629 26.4858ZM34.948 37.3484L34.8569 37.2011L34.948 37.3484ZM36.009 36.6315L36.1315 36.509L36.0261 36.4036L35.9061 36.492L36.009 36.6315ZM48.056 23.1146C48.056 28.256 46.2878 32.984 43.3262 36.7243L43.5978 36.9394C46.6061 33.1401 48.4024 28.3369 48.4024 23.1146H48.056ZM26.1146 1.17323C38.2325 1.17323 48.056 10.9967 48.056 23.1146H48.4024C48.4024 10.8054 38.4238 0.826766 26.1146 0.826766V1.17323ZM4.17323 23.1146C4.17323 10.9967 13.9967 1.17323 26.1146 1.17323V0.826766C13.8054 0.826766 3.82677 10.8054 3.82677 23.1146H4.17323ZM26.1146 45.056C13.9967 45.056 4.17323 35.2325 4.17323 23.1146H3.82677C3.82677 35.4238 13.8054 45.4024 26.1146 45.4024V45.056ZM39.7285 40.3228C35.9876 43.2864 31.258 45.056 26.1146 45.056V45.4024C31.3388 45.4024 36.1437 43.6048 39.9437 40.5944L39.7285 40.3228ZM45.7451 46.1226L39.9586 40.3361L39.7136 40.5811L45.5001 46.3676L45.7451 46.1226ZM49.1264 46.1226C48.1927 47.0563 46.6788 47.0563 45.7451 46.1226L45.5001 46.3676C46.5691 47.4366 48.3024 47.4366 49.3714 46.3676L49.1264 46.1226ZM49.1264 42.7413C50.0602 43.675 50.0602 45.1889 49.1264 46.1226L49.3714 46.3676C50.4405 45.2986 50.4405 43.5653 49.3714 42.4963L49.1264 42.7413ZM43.3395 36.9543L49.1264 42.7413L49.3714 42.4963L43.5845 36.7094L43.3395 36.9543ZM37.8021 31.417L43.3395 36.9543L43.5845 36.7094L38.0471 31.172L37.8021 31.417ZM35.9944 30.7195C36.6684 30.6865 37.3249 30.9398 37.8021 31.417L38.0471 31.172C37.5008 30.6257 36.7491 30.3357 35.9774 30.3735L35.9944 30.7195ZM34.2767 31.5745C34.7046 31.0624 35.3273 30.7522 35.9944 30.7195L35.9774 30.3735C35.2136 30.4109 34.5007 30.7661 34.0108 31.3523L34.2767 31.5745ZM34.2719 31.5801L34.2744 31.5772L34.0132 31.3496L34.0107 31.3524L34.2719 31.5801ZM34.2067 31.6518C34.2405 31.6156 34.2622 31.5912 34.2717 31.5803L34.0109 31.3522C34.0038 31.3604 33.9847 31.382 33.9536 31.4152L34.2067 31.6518ZM33.8613 31.9919C34.0237 31.8425 34.1391 31.7242 34.2067 31.6518L33.9536 31.4152C33.8914 31.4817 33.7822 31.5939 33.6267 31.737L33.8613 31.9919ZM32.3427 33.1335C33.0276 32.7101 33.5356 32.2917 33.8613 31.9919L33.6267 31.737C33.3146 32.0242 32.824 32.4287 32.1605 32.8388L32.3427 33.1335ZM26.1648 34.836C28.9235 34.836 30.9805 33.9754 32.3427 33.1335L32.1605 32.8388C30.8425 33.6535 28.8477 34.4895 26.1648 34.4895V34.836ZM14.4892 23.1627C14.4892 29.6093 19.7162 34.836 26.1648 34.836V34.4895C19.9075 34.4895 14.8357 29.4179 14.8357 23.1627H14.4892ZM26.1648 11.4895C19.7162 11.4895 14.4892 16.7161 14.4892 23.1627H14.8357C14.8357 16.9075 19.9075 11.8359 26.1648 11.8359V11.4895ZM37.8404 23.1627C37.8404 16.7161 32.6134 11.4895 26.1648 11.4895V11.8359C32.4221 11.8359 37.4939 16.9075 37.4939 23.1627H37.8404ZM37.6068 25.4999C37.7597 24.7467 37.8404 23.9654 37.8404 23.1627H37.4939C37.4939 23.9421 37.4156 24.7003 37.2673 25.4309L37.6068 25.4999ZM39.4742 28.3187C38.1802 28.056 37.3441 26.7939 37.6068 25.4999L37.2673 25.4309C36.9665 26.9125 37.9237 28.3575 39.4053 28.6583L39.4742 28.3187ZM42.2931 26.4513C42.0304 27.7454 40.7683 28.5815 39.4742 28.3187L39.4053 28.6583C40.8869 28.9591 42.3319 28.0018 42.6327 26.5202L42.2931 26.4513ZM42.6223 23.1627C42.6223 24.2867 42.5093 25.3867 42.2931 26.4513L42.6327 26.5202C42.8534 25.4331 42.9688 24.31 42.9688 23.1627H42.6223ZM26.1648 6.70755C35.2537 6.70755 42.6223 14.0744 42.6223 23.1627H42.9688C42.9688 13.883 35.445 6.36108 26.1648 6.36108V6.70755ZM9.7073 23.1627C9.7073 14.0744 17.076 6.70755 26.1648 6.70755V6.36108C16.8847 6.36108 9.36084 13.883 9.36084 23.1627H9.7073ZM26.1648 39.6179C17.076 39.6179 9.7073 32.251 9.7073 23.1627H9.36084C9.36084 32.4424 16.8847 39.9644 26.1648 39.9644V39.6179ZM34.8569 37.2011C32.8868 38.4188 29.9704 39.6179 26.1648 39.6179V39.9644C30.0463 39.9644 33.0249 38.7407 35.039 37.4958L34.8569 37.2011ZM35.9061 36.492C35.5925 36.7233 35.2427 36.9626 34.8569 37.2011L35.039 37.4958C35.4334 37.2521 35.791 37.0075 36.1118 36.7709L35.9061 36.492ZM39.9586 40.3361L36.1315 36.509L35.8865 36.754L39.7136 40.5811L39.9586 40.3361ZM43.3262 36.7243C42.27 38.0581 41.0621 39.2663 39.7285 40.3228L39.9437 40.5944C41.2982 39.5213 42.5251 38.2942 43.5978 36.9394L43.3262 36.7243Z" fill="url(#paint0_linear_428_3275)" mask="url(#path-1-outside-1_428_3275)"/>
</g>
<g filter="url(#filter1_d_428_3275)">
<path d="M70.75 38H64.5469V15.5H70.75V25.3281H78.9688V15.5H85.1719V38H78.9688V28.1875H70.75V38ZM95.2812 15.5938C95.2812 15.9896 95.2031 16.3646 95.0469 16.7188C94.901 17.0729 94.6979 17.3802 94.4375 17.6406C94.1771 17.901 93.8698 18.1094 93.5156 18.2656C93.1615 18.4115 92.7865 18.4844 92.3906 18.4844C91.9948 18.4844 91.6198 18.4115 91.2656 18.2656C90.9219 18.1094 90.6198 17.901 90.3594 17.6406C90.099 17.3802 89.8906 17.0729 89.7344 16.7188C89.5885 16.3646 89.5156 15.9896 89.5156 15.5938C89.5156 15.1979 89.5885 14.8281 89.7344 14.4844C89.8906 14.1302 90.099 13.8229 90.3594 13.5625C90.6198 13.3021 90.9219 13.099 91.2656 12.9531C91.6198 12.7969 91.9948 12.7188 92.3906 12.7188C92.7865 12.7188 93.1615 12.7969 93.5156 12.9531C93.8698 13.099 94.1771 13.3021 94.4375 13.5625C94.6979 13.8229 94.901 14.1302 95.0469 14.4844C95.2031 14.8281 95.2812 15.1979 95.2812 15.5938ZM95.0469 38H89.75V19.9688H95.0469V38ZM114.828 21.5469L111.859 26.4688C111.734 26.0521 111.573 25.5833 111.375 25.0625C111.177 24.5417 110.932 24.0573 110.641 23.6094C110.349 23.151 110 22.7708 109.594 22.4688C109.188 22.1562 108.719 22 108.188 22C107.698 22 107.271 22.125 106.906 22.375C106.552 22.625 106.25 22.9531 106 23.3594C105.75 23.7552 105.542 24.2083 105.375 24.7188C105.219 25.2188 105.094 25.7292 105 26.25C104.917 26.7604 104.859 27.2552 104.828 27.7344C104.797 28.2031 104.781 28.6094 104.781 28.9531V38H99.4844V19.9531H101.516L103.656 24.1562C103.948 23.4792 104.281 22.8594 104.656 22.2969C105.031 21.724 105.464 21.2344 105.953 20.8281C106.443 20.4115 106.995 20.0885 107.609 19.8594C108.234 19.6302 108.938 19.5156 109.719 19.5156C110.125 19.5156 110.578 19.5521 111.078 19.625C111.578 19.6875 112.068 19.8021 112.547 19.9688C113.026 20.125 113.469 20.3333 113.875 20.5938C114.281 20.8542 114.599 21.1719 114.828 21.5469ZM120.922 29.4375C121.568 29.5833 122.214 29.6979 122.859 29.7812C123.505 29.8646 124.156 29.9062 124.812 29.9062C125.5 29.9062 126.135 29.8438 126.719 29.7188C127.312 29.5833 127.823 29.3646 128.25 29.0625C128.688 28.75 129.031 28.3385 129.281 27.8281C129.531 27.3177 129.656 26.6823 129.656 25.9219C129.656 25.3073 129.573 24.7448 129.406 24.2344C129.24 23.724 128.99 23.2865 128.656 22.9219C128.333 22.5573 127.932 22.276 127.453 22.0781C126.974 21.8698 126.417 21.7656 125.781 21.7656C125.188 21.7656 124.651 21.875 124.172 22.0938C123.703 22.3125 123.286 22.6094 122.922 22.9844C122.568 23.349 122.26 23.776 122 24.2656C121.75 24.7552 121.542 25.2656 121.375 25.7969C121.208 26.3281 121.089 26.8646 121.016 27.4062C120.943 27.9479 120.906 28.4583 120.906 28.9375C120.906 29.0208 120.906 29.1042 120.906 29.1875C120.906 29.2708 120.911 29.3542 120.922 29.4375ZM133.938 25.875C133.938 26.6146 133.818 27.276 133.578 27.8594C133.339 28.4323 133.01 28.9375 132.594 29.375C132.188 29.8125 131.714 30.1823 131.172 30.4844C130.63 30.7865 130.052 31.0365 129.438 31.2344C128.823 31.4219 128.188 31.5573 127.531 31.6406C126.885 31.724 126.255 31.7656 125.641 31.7656C124.859 31.7656 124.089 31.7135 123.328 31.6094C122.568 31.4948 121.818 31.3177 121.078 31.0781C121.193 31.7656 121.375 32.4219 121.625 33.0469C121.875 33.6615 122.208 34.2031 122.625 34.6719C123.042 35.1302 123.552 35.4948 124.156 35.7656C124.771 36.0365 125.495 36.1719 126.328 36.1719C126.88 36.1719 127.406 36.0885 127.906 35.9219C128.406 35.7552 128.865 35.5208 129.281 35.2188C129.698 34.9167 130.062 34.5573 130.375 34.1406C130.698 33.724 130.958 33.2604 131.156 32.75L133.438 33.5938C133.094 34.4167 132.62 35.1302 132.016 35.7344C131.422 36.3281 130.745 36.8229 129.984 37.2188C129.234 37.6042 128.432 37.8906 127.578 38.0781C126.734 38.2656 125.896 38.3594 125.062 38.3594C123.688 38.3594 122.417 38.1302 121.25 37.6719C120.083 37.2031 119.078 36.5521 118.234 35.7188C117.391 34.8854 116.729 33.8906 116.25 32.7344C115.771 31.5781 115.531 30.3125 115.531 28.9375C115.531 27.5625 115.771 26.2969 116.25 25.1406C116.729 23.9844 117.391 22.9896 118.234 22.1562C119.078 21.3229 120.083 20.6771 121.25 20.2188C122.417 19.75 123.688 19.5156 125.062 19.5156C125.729 19.5156 126.411 19.5625 127.109 19.6562C127.807 19.75 128.484 19.901 129.141 20.1094C129.797 20.3073 130.417 20.5677 131 20.8906C131.583 21.2135 132.089 21.6146 132.516 22.0938C132.953 22.5625 133.297 23.1094 133.547 23.7344C133.807 24.3594 133.938 25.0729 133.938 25.875ZM143.781 38H137.578V15.5H153.734V18.375H143.781V25.3281H151.469V28.1875H143.781V38ZM161.766 38H156.484V11.6406H158.516L161.766 17.125V38ZM185.234 28.9375C185.234 29.875 185.109 30.7552 184.859 31.5781C184.609 32.401 184.26 33.1615 183.812 33.8594C183.375 34.5573 182.844 35.1875 182.219 35.75C181.594 36.3021 180.906 36.7708 180.156 37.1562C179.417 37.5417 178.62 37.8385 177.766 38.0469C176.922 38.2552 176.052 38.3594 175.156 38.3594C174.26 38.3594 173.391 38.2552 172.547 38.0469C171.703 37.8385 170.906 37.5417 170.156 37.1562C169.417 36.7708 168.734 36.3021 168.109 35.75C167.484 35.1875 166.948 34.5573 166.5 33.8594C166.062 33.1615 165.719 32.401 165.469 31.5781C165.219 30.7448 165.094 29.8646 165.094 28.9375C165.094 28.0104 165.219 27.1354 165.469 26.3125C165.719 25.4792 166.062 24.7135 166.5 24.0156C166.948 23.3177 167.484 22.6927 168.109 22.1406C168.734 21.5781 169.417 21.1042 170.156 20.7188C170.906 20.3333 171.703 20.0365 172.547 19.8281C173.391 19.6198 174.26 19.5156 175.156 19.5156C176.052 19.5156 176.922 19.6198 177.766 19.8281C178.62 20.0365 179.417 20.3333 180.156 20.7188C180.906 21.1042 181.594 21.5781 182.219 22.1406C182.844 22.6927 183.375 23.3177 183.812 24.0156C184.26 24.7135 184.609 25.4792 184.859 26.3125C185.109 27.1354 185.234 28.0104 185.234 28.9375ZM179.859 28.9375C179.859 28.4375 179.828 27.9115 179.766 27.3594C179.714 26.7969 179.62 26.25 179.484 25.7188C179.349 25.1771 179.161 24.6615 178.922 24.1719C178.693 23.6719 178.406 23.2396 178.062 22.875C177.719 22.5 177.307 22.2031 176.828 21.9844C176.349 21.7552 175.792 21.6406 175.156 21.6406C174.552 21.6406 174.016 21.7552 173.547 21.9844C173.078 22.2135 172.667 22.5208 172.312 22.9062C171.969 23.2812 171.677 23.7188 171.438 24.2188C171.208 24.7188 171.021 25.2396 170.875 25.7812C170.729 26.3125 170.625 26.8542 170.562 27.4062C170.5 27.9479 170.469 28.4583 170.469 28.9375C170.469 29.4167 170.5 29.9323 170.562 30.4844C170.625 31.026 170.729 31.5677 170.875 32.1094C171.021 32.651 171.208 33.1719 171.438 33.6719C171.677 34.1615 171.969 34.599 172.312 34.9844C172.667 35.3594 173.078 35.6615 173.547 35.8906C174.016 36.1198 174.552 36.2344 175.156 36.2344C175.781 36.2344 176.333 36.125 176.812 35.9062C177.292 35.6771 177.703 35.375 178.047 35C178.401 34.625 178.693 34.1927 178.922 33.7031C179.151 33.2135 179.333 32.6979 179.469 32.1562C179.615 31.6146 179.714 31.0677 179.766 30.5156C179.828 29.9635 179.859 29.4375 179.859 28.9375ZM196.422 38H191.672L186.734 19.9531H192.016L195.109 32.6094L197.688 19.9531H202.438L205.594 32.9531L208.641 19.9531H212.297L206.828 38H202.078L199.406 27.0312L196.422 38Z" fill="#2C2C2F"/>
</g>
<defs>
<filter id="filter0_d_428_3275" x="0.361972" y="0.827148" width="53.2758" height="53.2712" filterUnits="userSpaceOnUse" color-interpolation-filters="sRGB">
<feFlood flood-opacity="0" result="BackgroundImageFix"/>
<feColorMatrix in="SourceAlpha" type="matrix" values="0 0 0 0 0 0 0 0 0 0 0 0 0 0 0 0 0 0 127 0" result="hardAlpha"/>
<feOffset dy="3.46469"/>
<feGaussianBlur stdDeviation="1.73234"/>
<feComposite in2="hardAlpha" operator="out"/>
<feColorMatrix type="matrix" values="0 0 0 0 0.173243 0 0 0 0 0.172847 0 0 0 0 0.184717 0 0 0 0.2 0"/>
<feBlend mode="normal" in2="BackgroundImageFix" result="effect1_dropShadow_428_3275"/>
<feBlend mode="normal" in="SourceGraphic" in2="effect1_dropShadow_428_3275" result="shape"/>
</filter>
<filter id="filter1_d_428_3275" x="62.5469" y="9.64062" width="155.75" height="34.7188" filterUnits="userSpaceOnUse" color-interpolation-filters="sRGB">
<feFlood flood-opacity="0" result="BackgroundImageFix"/>
<feColorMatrix in="SourceAlpha" type="matrix" values="0 0 0 0 0 0 0 0 0 0 0 0 0 0 0 0 0 0 127 0" result="hardAlpha"/>
<feOffset dx="2" dy="2"/>
<feGaussianBlur stdDeviation="2"/>
<feComposite in2="hardAlpha" operator="out"/>
<feColorMatrix type="matrix" values="0 0 0 0 0.173243 0 0 0 0 0.172847 0 0 0 0 0.184717 0 0 0 0.2 0"/>
<feBlend mode="normal" in2="BackgroundImageFix" result="effect1_dropShadow_428_3275"/>
<feBlend mode="normal" in="SourceGraphic" in2="effect1_dropShadow_428_3275" result="shape"/>
</filter>
<linearGradient id="paint0_linear_428_3275" x1="27" y1="1" x2="27" y2="46.9961" gradientUnits="userSpaceOnUse">
<stop stop-color="#2C2C2F" stop-opacity="0.5"/>
<stop offset="0.505" stop-color="#2C2C2F" stop-opacity="0"/>
</linearGradient>
</defs>
</svg>
