<?xml version="1.0" encoding="UTF-8"?>
<svg xmlns="http://www.w3.org/2000/svg" xmlns:xlink="http://www.w3.org/1999/xlink" width="26px" height="30px" viewBox="0 0 26 29" version="1.1">
<g id="surface1">
<path style=" stroke:none;fill-rule:nonzero;fill:rgb(91.37255%,79.215688%,19.607843%);fill-opacity:1;" d="M 2.175781 25.960938 L 0 0.046875 L 26 0.101562 L 23.699219 25.960938 L 13.097656 28.953125 Z M 2.175781 25.960938 "/>
<path style=" stroke:none;fill-rule:nonzero;fill:rgb(100%,87.058824%,14.509805%);fill-opacity:1;" d="M 13.097656 26.449219 L 13.097656 2.515625 L 23.804688 2.550781 L 21.894531 23.964844 Z M 13.097656 26.449219 "/>
<path style=" stroke:none;fill-rule:nonzero;fill:rgb(100%,100%,100%);fill-opacity:1;" d="M 11.953125 5.359375 L 9.121094 5.359375 L 9.121094 21.285156 L 6.917969 20.878906 L 6.917969 18.734375 L 4.296875 18.324219 L 4.296875 23.125 L 11.953125 25.066406 Z M 14.074219 5.359375 L 21.910156 5.359375 L 21.386719 8.410156 L 17.066406 8.410156 L 17.066406 13.421875 L 21.386719 13.421875 L 20.863281 23.535156 L 14.074219 25.066406 L 14.074219 21.898438 L 18.660156 20.367188 L 18.925781 16.179688 L 14.074219 16.867188 Z M 14.074219 5.359375 "/>
</g>
</svg>
