<?xml version="1.0" encoding="UTF-8"?>
<svg xmlns="http://www.w3.org/2000/svg" xmlns:xlink="http://www.w3.org/1999/xlink" width="30px" height="27px" viewBox="0 0 31 27" version="1.1">
<g id="surface1">
<path style=" stroke:none;fill-rule:nonzero;fill:rgb(38.039216%,85.490197%,98.431373%);fill-opacity:1;" d="M 18.199219 13.5 C 18.199219 12.007812 16.992188 10.796875 15.5 10.796875 C 14.007812 10.796875 12.800781 12.007812 12.800781 13.5 C 12.800781 14.992188 14.007812 16.203125 15.5 16.203125 C 16.992188 16.203125 18.199219 14.992188 18.199219 13.5 Z M 18.199219 13.5 "/>
<path style="fill:none;stroke-width:1;stroke-linecap:butt;stroke-linejoin:miter;stroke:rgb(38.039216%,85.490197%,98.431373%);stroke-opacity:1;stroke-miterlimit:4;" d="M 11.001441 0 C 11.001441 -2.318129 6.075998 -4.201053 -0.000000000000001776 -4.201053 C -6.075998 -4.201053 -11.001441 -2.318129 -11.001441 0 C -11.001441 2.318129 -6.075998 4.201053 -0.000000000000001776 4.201053 C 6.075998 4.201053 11.001441 2.318129 11.001441 0 Z M 11.001441 0 " transform="matrix(1.317299,0,0,1.319424,15.5,13.5)"/>
<path style="fill:none;stroke-width:1;stroke-linecap:butt;stroke-linejoin:miter;stroke:rgb(38.039216%,85.490197%,98.431373%);stroke-opacity:1;stroke-miterlimit:4;" d="M 11.001091 -0.000201959 C 10.999801 -2.319055 6.075778 -4.199772 0.00141369 -4.200541 C -6.074433 -4.198742 -10.998336 -2.319739 -11.001091 0.000201959 C -10.999801 2.319055 -6.075778 4.199772 -0.00141369 4.200541 C 6.074433 4.198742 10.998336 2.319739 11.001091 -0.000201959 Z M 11.001091 -0.000201959 " transform="matrix(0.65865,1.142654,-1.140814,0.659712,15.5,13.5)"/>
<path style="fill:none;stroke-width:1;stroke-linecap:butt;stroke-linejoin:miter;stroke:rgb(38.039216%,85.490197%,98.431373%);stroke-opacity:1;stroke-miterlimit:4;" d="M 11.001091 0.000201959 C 10.998336 -2.319739 6.074433 -4.198742 -0.00141369 -4.200541 C -6.075778 -4.199772 -10.999801 -2.319055 -11.001091 -0.000201959 C -10.998336 2.319739 -6.074433 4.198742 0.00141369 4.200541 C 6.075778 4.199772 10.999801 2.319055 11.001091 0.000201959 Z M 11.001091 0.000201959 " transform="matrix(-0.65865,1.142654,-1.140814,-0.659712,15.5,13.5)"/>
</g>
</svg>
