<?xml version="1.0" encoding="UTF-8"?>
<svg xmlns="http://www.w3.org/2000/svg" xmlns:xlink="http://www.w3.org/1999/xlink" width="28px" height="28px" viewBox="0 0 28 28" version="1.1">
<g id="surface1">
<path style=" stroke:none;fill-rule:nonzero;fill:rgb(19.215687%,47.058824%,77.64706%);fill-opacity:1;" d="M 2.734375 0 L 25.265625 0 C 26.773438 0 28 1.226562 28 2.734375 L 28 25.265625 C 28 26.773438 26.773438 28 25.265625 28 L 2.734375 28 C 1.226562 28 0 26.773438 0 25.265625 L 0 2.734375 C 0 1.226562 1.226562 0 2.734375 0 Z M 2.734375 0 "/>
<path style=" stroke:none;fill-rule:nonzero;fill:rgb(19.215687%,47.058824%,77.64706%);fill-opacity:1;" d="M 2.734375 0 L 25.265625 0 C 26.773438 0 28 1.226562 28 2.734375 L 28 25.265625 C 28 26.773438 26.773438 28 25.265625 28 L 2.734375 28 C 1.226562 28 0 26.773438 0 25.265625 L 0 2.734375 C 0 1.226562 1.226562 0 2.734375 0 Z M 2.734375 0 "/>
<path style=" stroke:none;fill-rule:evenodd;fill:rgb(100%,100%,100%);fill-opacity:1;" d="M 17.332031 22.28125 L 17.332031 25.019531 C 17.777344 25.246094 18.304688 25.417969 18.910156 25.53125 C 19.519531 25.644531 20.160156 25.703125 20.832031 25.703125 C 21.488281 25.703125 22.113281 25.640625 22.703125 25.511719 C 23.292969 25.390625 23.8125 25.183594 24.253906 24.894531 C 24.699219 24.605469 25.054688 24.230469 25.3125 23.761719 C 25.570312 23.300781 25.703125 22.722656 25.703125 22.042969 C 25.703125 21.546875 25.628906 21.109375 25.480469 20.738281 C 25.332031 20.363281 25.121094 20.03125 24.839844 19.738281 C 24.558594 19.449219 24.222656 19.1875 23.832031 18.957031 C 23.441406 18.726562 23 18.511719 22.507812 18.300781 C 22.152344 18.15625 21.828125 18.011719 21.542969 17.871094 C 21.257812 17.730469 21.015625 17.585938 20.816406 17.441406 C 20.617188 17.296875 20.464844 17.144531 20.355469 16.980469 C 20.246094 16.816406 20.191406 16.636719 20.191406 16.429688 C 20.191406 16.242188 20.238281 16.070312 20.335938 15.921875 C 20.433594 15.769531 20.570312 15.640625 20.75 15.53125 C 20.921875 15.421875 21.140625 15.339844 21.398438 15.28125 C 21.65625 15.21875 21.941406 15.1875 22.253906 15.1875 C 22.484375 15.1875 22.722656 15.207031 22.976562 15.238281 C 23.230469 15.277344 23.488281 15.328125 23.742188 15.398438 C 24 15.46875 24.25 15.558594 24.492188 15.667969 C 24.734375 15.777344 24.960938 15.902344 25.164062 16.046875 L 25.164062 13.484375 C 24.746094 13.324219 24.292969 13.207031 23.800781 13.132812 C 23.304688 13.054688 22.738281 13.015625 22.101562 13.015625 C 21.449219 13.015625 20.832031 13.085938 20.253906 13.222656 C 19.667969 13.367188 19.160156 13.585938 18.714844 13.878906 C 18.273438 14.175781 17.921875 14.554688 17.667969 15.011719 C 17.410156 15.472656 17.28125 16.019531 17.28125 16.660156 C 17.28125 17.472656 17.519531 18.171875 17.988281 18.746094 C 18.457031 19.324219 19.171875 19.8125 20.132812 20.207031 C 20.507812 20.367188 20.859375 20.515625 21.183594 20.664062 C 21.511719 20.8125 21.792969 20.96875 22.027344 21.128906 C 22.265625 21.285156 22.449219 21.460938 22.585938 21.648438 C 22.722656 21.835938 22.792969 22.050781 22.792969 22.289062 C 22.792969 22.464844 22.75 22.628906 22.667969 22.78125 C 22.578125 22.933594 22.449219 23.0625 22.277344 23.175781 C 22.101562 23.285156 21.886719 23.375 21.625 23.433594 C 21.363281 23.496094 21.0625 23.53125 20.710938 23.53125 C 20.121094 23.53125 19.53125 23.425781 18.949219 23.214844 C 18.367188 23.007812 17.828125 22.699219 17.332031 22.28125 Z M 12.730469 15.535156 L 16.242188 15.535156 L 16.242188 13.289062 L 6.453125 13.289062 L 6.453125 15.535156 L 9.949219 15.535156 L 9.949219 25.539062 L 12.730469 25.539062 Z M 12.730469 15.535156 "/>
</g>
</svg>
